<svg width="127" height="66" viewBox="0 0 127 66" fill="none" xmlns="http://www.w3.org/2000/svg">
<path d="M10.9933 10.9707C10.9933 11.4167 10.91 11.8626 10.7435 12.2194C10.5769 12.5761 10.4103 12.8437 10.0772 13.1113C9.82739 13.3788 9.49428 13.5572 9.16116 13.6464C8.82805 13.7356 8.49493 13.8248 8.16182 13.914V14.8059H6.49624V13.914C5.99657 13.8248 5.58018 13.7356 5.24706 13.5572C4.91395 13.3788 4.58083 13.2005 4.41428 12.8437C4.16444 12.5761 3.99788 12.2194 3.9146 11.8626C3.83133 11.5059 3.74805 11.0599 3.74805 10.614V6.86803C3.74805 6.42208 3.83133 5.97614 3.99788 5.61938C4.16444 5.26262 4.331 4.99505 4.66411 4.72749C4.91395 4.45992 5.24706 4.28154 5.58018 4.19235C5.91329 4.10316 6.24641 4.01397 6.57952 4.01397V3.38965H8.2451V4.01397C8.57821 4.01397 8.91133 4.10316 9.24444 4.19235C9.57756 4.37073 9.82739 4.54911 10.1605 4.72749C10.4103 4.99505 10.6602 5.26262 10.7435 5.61938C10.91 5.97614 10.9933 6.42208 10.9933 6.86803V10.9707ZM6.57952 5.35181C6.24641 5.441 5.91329 5.61938 5.66346 5.79776C5.4969 5.97614 5.41362 6.33289 5.41362 6.77884V11.1491C5.41362 11.3275 5.41362 11.5059 5.4969 11.6842C5.58018 11.8626 5.66346 11.9518 5.74674 12.041C5.83001 12.1302 5.99657 12.2194 6.16313 12.3086C6.32969 12.3978 6.49624 12.3978 6.57952 12.3978V5.35181ZM9.49428 6.77884C9.49428 6.33289 9.411 6.06532 9.16116 5.79776C8.91133 5.53019 8.66149 5.441 8.32837 5.441V12.4869C8.49493 12.4869 8.57821 12.3978 8.74477 12.3978C8.91133 12.3086 8.9946 12.2194 9.16116 12.1302C9.24444 12.041 9.411 11.8626 9.411 11.7734C9.49428 11.5951 9.49428 11.4167 9.49428 11.2383V6.77884Z" fill="white"/>
<path d="M19.3208 11.8622C19.3208 12.8433 19.0709 13.5568 18.6545 14.0919C18.2382 14.6271 17.5719 14.8055 16.6559 14.8055C15.7398 14.8055 15.0736 14.5379 14.6572 14.0919C14.2408 13.646 14.0742 12.9325 14.0742 11.9514V6.33248C14.0742 5.88654 14.1575 5.44059 14.2408 5.08383C14.3241 4.72708 14.4906 4.37032 14.6572 4.10275C14.907 3.83518 15.1568 3.65681 15.49 3.47843C15.8231 3.38924 16.1562 3.30005 16.6559 3.30005C17.1555 3.30005 17.5719 3.38924 17.905 3.47843C18.2382 3.65681 18.488 3.83518 18.7378 4.10275C18.9044 4.37032 19.0709 4.72708 19.1542 5.08383C19.2375 5.44059 19.3208 5.88654 19.3208 6.33248V11.8622ZM17.5719 6.1541C17.5719 5.79735 17.4886 5.52978 17.4054 5.26221C17.2388 4.99464 17.0723 4.90545 16.6559 4.90545C16.4893 4.90545 16.3227 4.90545 16.1562 5.08383C16.0729 5.17302 15.9064 5.26221 15.8231 5.44059C15.7398 5.61897 15.7398 5.70816 15.6565 5.88654C15.6565 6.06491 15.6565 6.24329 15.6565 6.33248V12.0406C15.6565 12.3082 15.7398 12.5757 15.9064 12.8433C16.0729 13.1109 16.3227 13.2001 16.6559 13.2001C16.989 13.2001 17.2388 13.1109 17.4054 12.8433C17.5719 12.5757 17.6552 12.3082 17.6552 11.9514L17.5719 6.1541Z" fill="white"/>
<path d="M26.0654 14.8059V9.81127H24.1499V14.8059H22.4844V3.38965H24.1499V8.11668H26.0654V3.38965H27.7309V14.8059H26.0654Z" fill="white"/>
<path d="M31.6462 14.8059V16.9464H30.2305V13.2896L30.8967 13.1113C31.2298 12.7545 31.3964 12.3978 31.4796 11.9518C31.5629 11.5059 31.6462 10.9707 31.6462 10.2572L31.8128 3.38965H36.6429V13.1113H37.3092V16.9464H35.8934V14.8059H31.6462ZM33.2285 10.2572C33.2285 10.8815 33.1452 11.5059 33.1452 11.9518C33.0619 12.3978 32.9787 12.8437 32.8121 13.1113H35.1439V5.08424H33.3118L33.2285 10.2572Z" fill="white"/>
<path d="M47.4694 3.2998C47.8858 3.2998 48.3022 3.38899 48.6353 3.47818C48.9685 3.56737 49.2183 3.83494 49.4681 4.01332C49.718 4.28089 49.8012 4.54845 49.9678 4.81602C49.9678 5.17278 49.9678 5.52953 49.9678 5.88629L48.3022 6.33224C48.3022 5.88629 48.219 5.61872 48.0524 5.35116C47.8858 5.08359 47.636 4.9944 47.3029 4.9944C47.1363 4.9944 46.9698 4.9944 46.8032 5.08359C46.7199 5.17278 46.5534 5.26197 46.5534 5.44035C46.4701 5.61872 46.4701 5.70791 46.3868 5.88629C46.3868 6.06467 46.3868 6.24305 46.3868 6.33224V12.1295C46.3868 12.2187 46.3868 12.3971 46.3868 12.4863C46.3868 12.6647 46.4701 12.7539 46.5534 12.843C46.6367 12.9322 46.7199 13.0214 46.8032 13.1106C46.8865 13.1998 47.053 13.1998 47.2196 13.1998C47.8026 13.1998 48.1357 12.7539 48.1357 11.7728C48.3855 11.862 48.7186 11.862 48.9685 11.9512C49.2183 12.0403 49.5514 12.0403 49.8012 12.0403C49.8012 12.9322 49.5514 13.5566 49.135 14.0917C48.7186 14.6268 48.0524 14.8052 47.2196 14.8052C46.3035 14.8052 45.6373 14.5376 45.2209 14.0917C44.8045 13.6458 44.5547 12.9322 44.5547 12.0403V6.42143C44.5547 5.97548 44.5547 5.61872 44.7212 5.17278C44.8045 4.81602 44.9711 4.45926 45.1376 4.1917C45.3875 3.92413 45.6373 3.65656 45.9704 3.56737C46.5534 3.38899 46.9698 3.2998 47.4694 3.2998Z" fill="white"/>
<path d="M57.9614 11.8623C57.9614 12.8434 57.7116 13.5569 57.2952 14.092C56.8788 14.6272 56.2126 14.8055 55.2965 14.8055C54.3804 14.8055 53.7142 14.538 53.2978 14.092C52.8814 13.6461 52.7148 12.9326 52.7148 11.9515V6.33256C52.7148 5.88661 52.7981 5.44067 52.8814 5.08391C52.9647 4.72715 53.1312 4.3704 53.2978 4.10283C53.4644 3.83526 53.7975 3.65688 54.1306 3.47851C54.4637 3.30013 54.8801 3.21094 55.2965 3.21094C55.7962 3.21094 56.2126 3.30013 56.5457 3.38932C56.8788 3.56769 57.1286 3.74607 57.3785 4.01364C57.545 4.28121 57.7116 4.63796 57.7948 4.99472C57.8781 5.35148 57.9614 5.79742 57.9614 6.24337V11.8623ZM56.2958 6.15418C56.2958 5.79742 56.2126 5.52986 56.1293 5.26229C55.9627 4.99472 55.7962 4.90553 55.3798 4.90553C55.2132 4.90553 55.0466 4.90553 54.8801 5.08391C54.7968 5.1731 54.6303 5.26229 54.547 5.44067C54.4637 5.61905 54.4637 5.70823 54.3804 5.88661C54.3804 6.06499 54.3804 6.24337 54.3804 6.33256V12.0407C54.3804 12.3082 54.4637 12.5758 54.6303 12.8434C54.7968 13.1109 55.0466 13.2001 55.3798 13.2001C55.7129 13.2001 55.9627 13.1109 56.1293 12.8434C56.2958 12.5758 56.3791 12.3082 56.3791 11.9515L56.2958 6.15418Z" fill="white"/>
<path d="M61.8767 14.8059V16.9464H60.4609V13.2896L61.1272 13.1113C61.4603 12.7545 61.6268 12.3978 61.7101 11.9518C61.7934 11.5059 61.8767 10.9707 61.8767 10.2572L62.0432 3.38965H66.8734V13.1113H67.5396V16.9464H66.1239V14.8059H61.8767ZM63.3757 10.2572C63.3757 10.8815 63.2924 11.5059 63.2924 11.9518C63.2091 12.3978 63.1259 12.8437 62.9593 13.1113H65.2911V5.08424H63.5423L63.3757 10.2572Z" fill="white"/>
<path d="M70.2871 14.8059V3.38965H75.1173V4.99505H71.9527V8.11668H74.7009V9.81127H71.9527V13.1113H75.1173V14.8059H70.2871Z" fill="white"/>
<path d="M81.614 7.6703L79.3655 14.8054H77.7832V3.38922H79.4488V10.6135H79.5321L81.7806 3.38922H83.4462V14.7162H81.7806L81.614 7.6703ZM79.6153 0.802734C79.6153 0.891924 79.6153 1.0703 79.6986 1.15949C79.7819 1.24868 79.8652 1.42706 79.9484 1.51625C80.0317 1.60544 80.115 1.69463 80.2816 1.78382C80.3648 1.873 80.5314 1.873 80.698 1.873C80.8645 1.873 81.0311 1.873 81.1144 1.78382C81.1976 1.69463 81.3642 1.60544 81.4475 1.51625C81.5307 1.42706 81.614 1.33787 81.614 1.15949C81.614 0.981113 81.614 0.891924 81.614 0.802734H82.8632C82.8632 0.981113 82.7799 1.24868 82.6966 1.51625C82.6134 1.78382 82.4468 2.05138 82.2803 2.31895C82.1137 2.49733 81.8639 2.67571 81.614 2.85409C81.3642 3.03246 81.0311 3.03246 80.698 3.03246C80.2816 3.03246 79.9484 2.94327 79.6986 2.85409C79.3655 2.67571 79.1157 2.49733 78.9491 2.31895C78.7825 2.14057 78.616 1.873 78.5327 1.60544C78.4494 1.33787 78.3662 1.0703 78.3662 0.891924L79.6153 0.802734Z" fill="white"/>
<path d="M89.0255 3.2998C89.4419 3.2998 89.8583 3.38899 90.1914 3.47818C90.5246 3.56737 90.7744 3.83494 91.0242 4.01332C91.2741 4.28089 91.3573 4.54845 91.5239 4.81602C91.6072 5.17278 91.6905 5.44035 91.6905 5.88629L90.0249 6.33224C90.0249 5.88629 89.9416 5.61872 89.7751 5.35116C89.6085 5.08359 89.3587 4.9944 89.0255 4.9944C88.859 4.9944 88.6924 4.9944 88.5259 5.08359C88.4426 5.17278 88.276 5.26197 88.276 5.44035C88.1928 5.61872 88.1928 5.70791 88.1095 5.88629C88.1095 6.06467 88.1095 6.24305 88.1095 6.33224V12.1295C88.1095 12.2187 88.1095 12.3971 88.1095 12.4863C88.1095 12.6647 88.1928 12.7539 88.276 12.843C88.3593 12.9322 88.4426 13.0214 88.5259 13.1106C88.6092 13.1998 88.7757 13.1998 88.9423 13.1998C89.5252 13.1998 89.8583 12.7539 89.8583 11.7728C90.1082 11.862 90.4413 11.862 90.6911 11.9512C90.941 12.0403 91.2741 12.0403 91.5239 12.0403C91.5239 12.9322 91.2741 13.5566 90.8577 14.0917C90.4413 14.6268 89.7751 14.8052 88.9423 14.8052C88.0262 14.8052 87.4432 14.5376 86.9436 14.0917C86.4439 13.6458 86.2773 12.9322 86.2773 12.0403V6.42143C86.2773 5.97548 86.2773 5.61872 86.4439 5.17278C86.5272 4.81602 86.6937 4.45926 86.8603 4.1917C87.1101 3.92413 87.36 3.65656 87.6931 3.56737C88.1095 3.38899 88.5259 3.2998 89.0255 3.2998Z" fill="white"/>
<path d="M97.1019 4.99505V14.8059H95.4364V4.99505H93.6875V3.38965H98.8508V4.99505H97.1019Z" fill="white"/>
<path d="M105.265 8.83019C105.765 9.00857 106.098 9.27613 106.264 9.72208C106.431 10.168 106.514 10.7032 106.514 11.3275C106.514 12.4869 106.264 13.3788 105.765 13.914C105.265 14.4491 104.515 14.7167 103.516 14.7167H101.268V3.38965H103.599C104.515 3.38965 105.265 3.65722 105.681 4.19235C106.098 4.72749 106.348 5.53019 106.348 6.51127C106.348 7.04641 106.264 7.49235 106.098 7.84911C106.014 8.20586 105.681 8.56262 105.265 8.83019ZM104.849 6.51127C104.849 5.97614 104.765 5.61938 104.515 5.35181C104.349 5.08424 104.016 4.99505 103.516 4.99505H103.016V7.9383H103.599C104.016 7.9383 104.349 7.84911 104.515 7.58154C104.682 7.31397 104.849 6.95722 104.849 6.51127ZM104.932 11.1491C104.932 10.614 104.849 10.2572 104.682 9.98965C104.515 9.72208 104.182 9.63289 103.683 9.63289H103.016V13.2005H103.683C103.932 13.2005 104.182 13.1113 104.349 13.0221C104.515 12.9329 104.599 12.7545 104.682 12.5761C104.765 12.3978 104.849 12.2194 104.849 11.9518C104.932 11.6842 104.932 11.4167 104.932 11.1491Z" fill="white"/>
<path d="M113.425 7.67073L111.176 14.8059H109.594V3.38965H111.176V10.614H111.259L113.508 3.38965H115.173V14.8059H113.508V7.67073H113.425Z" fill="white"/>
<path d="M117.922 14.8059L118.505 11.2383C118.588 10.8815 118.671 10.5248 118.838 10.168C119.004 9.81127 119.171 9.63289 119.504 9.45451C119.004 9.27614 118.671 8.91938 118.505 8.47343C118.338 8.02749 118.255 7.49235 118.255 6.86803C118.255 5.70857 118.505 4.90586 119.004 4.28154C119.504 3.74641 120.254 3.38965 121.086 3.38965H123.585V14.7167H121.919V9.90046H121.503C121.17 9.90046 120.92 9.98965 120.67 10.2572C120.42 10.5248 120.254 10.8815 120.17 11.5951L119.671 14.8059H117.922ZM121.253 4.99505C120.753 4.99505 120.42 5.17343 120.17 5.441C119.921 5.70857 119.837 6.15451 119.837 6.68965C119.837 7.22478 120.004 7.67073 120.254 7.84911C120.504 8.02749 120.837 8.20586 121.253 8.20586H121.919V4.99505H121.253Z" fill="white"/>
<path d="M8.82892 24.2592L5.99744 33.089H4.08203V18.9971H6.08072V27.916H6.164L8.9122 18.9971H10.9109V33.089H8.9122V24.2592H8.82892Z" fill="white"/>
<path d="M21.07 33.089V26.9349H18.7382V33.089H16.6562V18.9971H18.7382V24.8836H21.07V18.9971H23.152V33.089H21.07Z" fill="white"/>
<path d="M33.3942 33.089V26.9349H30.9792V33.089H28.9805V18.9971H30.9792V24.8836H33.3942V18.9971H35.4762V33.089H33.3942Z" fill="white"/>
<path d="M47.6351 29.4325C47.6351 30.6812 47.3853 31.5731 46.8856 32.1974C46.3859 32.8217 45.5531 33.1785 44.3872 33.1785C43.2213 33.1785 42.4718 32.9109 41.9722 32.2866C41.4725 31.6623 41.2227 30.8596 41.2227 29.7001V22.565C41.2227 22.0298 41.3059 21.4947 41.3892 21.0487C41.4725 20.6028 41.7223 20.1569 41.9722 19.8893C42.222 19.5325 42.5551 19.265 42.9715 19.1758C43.3879 18.9974 43.8876 18.9082 44.4705 18.9082C45.0535 18.9082 45.6364 18.9974 45.9695 19.1758C46.3859 19.3541 46.7191 19.6217 46.9689 19.8893C47.2187 20.246 47.3853 20.6028 47.5518 21.0487C47.6351 21.4947 47.7184 22.0298 47.7184 22.6541L47.6351 29.4325ZM45.5531 22.3866C45.5531 22.0298 45.4699 21.6731 45.3033 21.3163C45.1368 20.9596 44.8036 20.8704 44.3872 20.8704C44.1374 20.8704 43.9709 20.9596 43.8043 21.0487C43.6377 21.1379 43.5545 21.3163 43.4712 21.4947C43.3879 21.6731 43.3046 21.8514 43.3046 22.0298C43.3046 22.2082 43.2213 22.3866 43.2213 22.6541V29.7893C43.2213 30.146 43.3046 30.5028 43.4712 30.7704C43.6377 31.0379 43.9709 31.2163 44.3872 31.2163C44.8036 31.2163 45.1368 31.0379 45.3033 30.7704C45.4699 30.4136 45.5531 30.0568 45.5531 29.7001V22.3866Z" fill="white"/>
<path d="M58.129 25.6866C58.7119 25.865 59.1283 26.3109 59.3782 26.846C59.628 27.3812 59.7113 28.0947 59.7113 28.8082C59.7113 30.3244 59.3782 31.3947 58.7952 32.019C58.2123 32.7325 57.2962 33.0893 56.047 33.0893H53.2988V18.9082H56.2136C57.3795 18.9082 58.2123 19.265 58.7952 19.8893C59.3782 20.5136 59.628 21.4947 59.628 22.7433C59.628 23.3677 59.5447 23.992 59.2949 24.4379C59.0451 24.8839 58.7119 25.3298 58.2123 25.5082L58.129 25.6866ZM57.546 22.8325C57.546 22.2082 57.4628 21.6731 57.2129 21.4055C56.9631 21.1379 56.5467 20.9596 55.9637 20.9596H55.2975V24.6163H55.9637C56.5467 24.6163 56.8798 24.4379 57.1296 24.1704C57.4628 23.8136 57.546 23.3677 57.546 22.8325ZM57.7126 28.6298C57.7126 28.0055 57.6293 27.4704 57.3795 27.1136C57.1296 26.7569 56.7133 26.6677 56.1303 26.6677H55.3808V31.0379H56.2136C56.5467 31.0379 56.7965 30.9487 57.0464 30.8596C57.2129 30.7704 57.3795 30.5028 57.546 30.3244C57.6293 30.146 57.7126 29.8785 57.7959 29.6109C57.7126 29.2541 57.7126 28.8974 57.7126 28.6298Z" fill="white"/>
<path d="M70.1214 33.089L69.6217 30.1457H67.2066C67.1234 30.5917 67.0401 31.1268 66.9568 31.5727C66.8735 32.1079 66.7902 32.5538 66.707 33.089H64.625C65.0414 30.6809 65.5411 28.3619 65.9575 26.043C66.3739 23.7241 66.8735 21.316 67.2899 18.9971H69.6217L72.3699 33.089H70.1214ZM68.2893 22.2079C68.1227 23.189 68.0394 24.17 67.8729 25.1511C67.7063 26.1322 67.5398 27.1133 67.3732 28.0944H69.2053L68.2893 22.2079Z" fill="white"/>
<path d="M83.695 18.9973V31.0379H84.5277V35.7649H82.7789V33.0892H77.1992V18.9973H79.2812V31.0379H81.613V18.9973H83.695Z" fill="white"/>
<path d="M94.2716 24.2595L91.5234 33.0892H89.4414V18.9973H91.5234V27.9162H91.6067L94.3549 18.9973H96.3535V33.0892H94.3549V24.2595H94.2716Z" fill="white"/>
<path d="M101.6 33.0893L102.349 28.6298C102.432 28.1839 102.599 27.7379 102.766 27.292C102.932 26.9352 103.265 26.5785 103.598 26.4001C103.015 26.1325 102.599 25.6866 102.349 25.1514C102.099 24.6163 102.016 23.9028 102.016 23.1893C102.016 21.7623 102.349 20.7812 102.932 19.9785C103.598 19.265 104.431 18.9082 105.514 18.9082H108.595V33.0001H106.513V26.9352H105.93C105.597 26.9352 105.264 27.1136 104.931 27.3812C104.598 27.6487 104.431 28.1839 104.265 28.9866L103.598 33.0001L101.6 33.0893ZM105.68 21.0487C105.097 21.0487 104.598 21.2271 104.348 21.6731C104.098 22.0298 104.015 22.565 104.015 23.2785C104.015 23.992 104.181 24.4379 104.514 24.7055C104.847 24.9731 105.264 25.0623 105.764 25.0623H106.596V21.0487C106.513 21.0487 105.68 21.0487 105.68 21.0487Z" fill="white"/>
<path d="M118.172 29.9673L117.256 27.3809L116.423 24.8836H116.34V33.089H114.258V18.9971H116.257L117.672 23.0106L118.755 26.043H118.838L119.921 22.9214L121.337 18.9971H123.335V33.089H121.253V24.9727L120.337 27.47L119.421 29.9673H118.172Z" fill="white"/>
<path d="M122.171 40.2242C122.587 39.9567 123.004 39.5999 123.42 39.3324H123.503C121.171 40.4918 118.84 41.4729 116.591 42.454C102.267 48.4296 88.8593 50.9269 77.117 51.0161C60.6278 51.1053 47.6364 46.3783 40.7242 39.2432H28.2324C46.9701 58.2405 90.6914 62.6107 122.171 40.2242Z" fill="#F7F7F7"/>
<path d="M15.9076 39.2435H4.08203C19.905 57.1705 42.5568 63.9489 61.5443 64.8408C63.543 64.93 65.4584 64.93 67.2906 64.93C79.6158 64.7516 93.3568 61.8975 105.266 55.03C112.094 51.1056 118.34 45.9327 123.42 39.1543C94.606 69.4786 36.8938 64.2165 15.9076 39.2435Z" fill="#EF2616"/>
<path d="M123.419 39.2433C122.919 39.6 122.503 39.9568 122.087 40.2244C90.6905 62.6109 46.9692 58.2406 28.2315 39.2433H15.9062C36.8925 64.2163 94.6046 69.4784 123.419 39.2433Z" fill="#0033A4"/>
<path d="M123.752 39.1536C123.752 39.0644 123.669 38.9753 123.585 38.9753C123.585 38.9753 123.502 38.8861 123.419 38.8861H123.336H123.252H123.169C120.837 39.9563 118.589 41.0266 116.257 42.0077C103.016 47.4482 89.4412 50.3915 76.9493 50.4807H76.2831C60.9598 50.4807 48.1349 46.2888 41.0562 38.9753L40.973 38.8861L40.8897 38.7969H40.8064H4.16378C4.16378 38.7969 4.0805 38.7969 3.99722 38.8861L3.83066 38.9753C3.74739 39.0644 3.66411 39.1536 3.74739 39.2428V39.4212C3.74739 39.4212 3.74739 39.5104 3.83066 39.5996C11.1592 47.8942 20.4864 54.3158 31.4792 58.7753C40.6398 62.5212 51.0497 64.6617 61.4595 65.1969C62.8753 65.2861 64.3743 65.2861 65.8733 65.2861C66.373 65.2861 66.7894 65.2861 67.289 65.2861C73.7848 65.1969 80.2805 64.3942 86.5264 62.7888C93.3553 61.0942 99.6844 58.5969 105.431 55.3861C112.759 51.1942 118.839 45.932 123.669 39.5104V39.4212V39.332V39.2428C123.752 39.332 123.752 39.2428 123.752 39.1536ZM122.42 40.0455C117.756 45.932 111.926 50.9266 105.098 54.7617C94.3546 60.8266 80.9467 64.305 67.289 64.5726C65.3736 64.5726 63.4582 64.5726 61.5428 64.4834C48.1349 63.859 22.9848 59.7563 4.74673 39.5996H40.6398C47.8851 47.0023 60.8766 51.1942 76.2831 51.1942C76.533 51.1942 76.6995 51.1942 76.9493 51.1942C89.5244 51.105 103.182 48.1617 116.423 42.632C118.505 41.9185 120.504 41.0266 122.42 40.0455Z" fill="white" fill-opacity="0.7"/>
</svg>
